<svg id="Layer_1" data-name="Layer 1" xmlns="http://www.w3.org/2000/svg" viewBox="0 0 1180.12 244.65"><defs><style>.cls-1{fill:#676088;}.cls-2{fill:#fff;}.cls-3{fill:#89aed4;}.cls-4{fill:#5188c0;}.cls-5{fill:#b3afc3;}</style></defs><path class="cls-1" d="M714.71,610.51a2.28,2.28,0,0,1-2.58-2.58V495.54H677.68A2.28,2.28,0,0,1,675.1,493V472.07a2.28,2.28,0,0,1,2.58-2.58h98.61a2.28,2.28,0,0,1,2.58,2.58V493a2.28,2.28,0,0,1-2.58,2.58H742.06V607.93c0,1.72-.94,2.58-2.8,2.58Z" transform="translate(-369.94 -417.68)"/><path class="cls-1" d="M799.11,610.51c-1.87,0-2.8-.86-2.8-2.58V472.07c0-1.72.93-2.58,2.8-2.58h24.55a2.28,2.28,0,0,1,2.58,2.58V607.93a2.28,2.28,0,0,1-2.58,2.58Z" transform="translate(-369.94 -417.68)"/><path class="cls-1" d="M854.87,610.51c-1.87,0-2.8-.86-2.8-2.58V472.07c0-1.72.93-2.58,2.8-2.58h45.21q27.78,0,40.48,11T953.26,513q0,14.64-6,24.76t-18.94,14l-.22.43,32.51,55.12a1.91,1.91,0,0,1-1.72,3.23H931.09a3.37,3.37,0,0,1-3-1.72l-29.28-52.53H882v51.67a2.28,2.28,0,0,1-2.59,2.58ZM882,532.79h17.65q12.27,0,18-4.63t5.71-14.53q0-9.9-5.39-14.32t-17.44-4.42H882Z" transform="translate(-369.94 -417.68)"/><path class="cls-1" d="M1092.77,607.5l-43.49-135.86a3.05,3.05,0,0,0-3-2.15h-32.08a3.2,3.2,0,0,0-3.23,2.15L967.68,607.5q-.64,3,2.15,3h26.49a3,3,0,0,0,3.23-2.15l7-25.62h47.1l7.23,25.62a2.7,2.7,0,0,0,2.8,2.15h27.12C1092.7,610.51,1093.34,609.51,1092.77,607.5Zm-79.64-48.66,9.45-34.45q1.93-7.32,3.77-14.53t3.34-14.53h.43q1.73,7.32,3.44,14.53t3.66,14.53l9.72,34.45Z" transform="translate(-369.94 -417.68)"/><path class="cls-1" d="M1105.47,610.51c-1.87,0-2.8-.86-2.8-2.58l2.8-135.86a2.28,2.28,0,0,1,2.58-2.58h29.72a3,3,0,0,1,3,1.94l33.16,74.49,32.94-74.49a3,3,0,0,1,3-1.94h29.93q2.37,0,2.37,2.58l3,135.86a2.28,2.28,0,0,1-2.58,2.58H1218.5q-2.79,0-2.79-2.58l-1.08-59q-.23-9.26.11-18.52t.75-17.66h-.65q-3.22,8-7,16.48t-7.65,16.47l-22.82,48.22a3.08,3.08,0,0,1-3,1.73h-1.08a2.92,2.92,0,0,1-2.8-1.73l-23-48.44q-3.89-7.75-7.43-16.25t-7-16.48h-.65q.43,8.4.87,17.66t.21,18.3l-1.29,59.21c0,1.72-.94,2.58-2.8,2.58Z" transform="translate(-369.94 -417.68)"/><path class="cls-1" d="M1271,610.51q-2.79,0-2.79-2.58V472.07q0-2.58,2.79-2.58h24.55a2.28,2.28,0,0,1,2.58,2.58V607.93a2.28,2.28,0,0,1-2.58,2.58Z" transform="translate(-369.94 -417.68)"/><path class="cls-1" d="M1368.13,612.88q-27.35,0-39.4-11t-10.33-32.08q.21-3.23,2.8-3.23h24.11c1.86,0,2.65,1,2.37,3q-.23,8.63,5.06,13.25t16.25,4.62q11,0,16.15-3.33t5.17-10.66a13.48,13.48,0,0,0-1.51-6.46,15.83,15.83,0,0,0-4.52-5.06,41.86,41.86,0,0,0-8.61-4.63L1347,544a64.34,64.34,0,0,1-16.15-10.22,30.45,30.45,0,0,1-8.5-12.6,49.62,49.62,0,0,1-2.48-16.36q.21-18.09,12.06-27.88t35.52-9.8q25.85,0,38.76,10.55t11.19,31.22c-.28,2.3-1.22,3.44-2.79,3.44h-24.12a2.72,2.72,0,0,1-2-.75,3.19,3.19,0,0,1-.54-2.69q.64-7.53-4.63-12.17t-15.4-4.62q-8.82,0-13.45,3.23t-4.84,9.9a12.84,12.84,0,0,0,6,11.3,51.76,51.76,0,0,0,8.61,4.63l28.21,13.13q10.55,5,16.58,10.34a30.69,30.69,0,0,1,8.61,12.49,46.2,46.2,0,0,1,2.37,16.79q0,18.95-12.38,29T1368.13,612.88Z" transform="translate(-369.94 -417.68)"/><path class="cls-1" d="M1495.16,612.88q-27.35,0-41.23-13.24T1440,559.05v-87a2.28,2.28,0,0,1,2.58-2.58h24.76a2.28,2.28,0,0,1,2.59,2.58V558q0,14.21,6,21.53t19.16,7.32q13.13,0,19.16-7.32t6-21.53V472.07q0-2.58,2.37-2.58h24.76a2.28,2.28,0,0,1,2.58,2.58v87q0,27.13-14,40.48T1495.16,612.88Z" transform="translate(-369.94 -417.68)"/><circle class="cls-2" cx="122.32" cy="122.32" r="122.32"/><path class="cls-3" d="M460.58,421.83A122.36,122.36,0,0,0,447.74,654l12.51-37.52h39.24a7.65,7.65,0,0,0,7.57-6.56l6.7-46.95h19.12v-3.83L517.59,505.6C517.59,465.56,495.25,433,460.58,421.83Z" transform="translate(-369.94 -417.68)"/><path class="cls-4" d="M494.47,479.92a14.88,14.88,0,0,0-14.23,10.52H450.17l-20.91,31.87H410.05a14.89,14.89,0,1,0,.41,8.36h23.32l20.9-31.87h25.46a14.88,14.88,0,1,0,14.33-18.89ZM396,532.48a5.29,5.29,0,1,1,5.29-5.28A5.27,5.27,0,0,1,396,532.48Zm98.48-32.38a5.29,5.29,0,1,1,5.29-5.29A5.28,5.28,0,0,1,494.47,500.1Z" transform="translate(-369.94 -417.68)"/><path class="cls-4" d="M442.35,610.61a14.89,14.89,0,1,0-14.29-19H404.59a14.87,14.87,0,0,0-25.65-5.46,121.75,121.75,0,0,0,13.33,24.35,14.88,14.88,0,0,0,12.3-10.52h23.51A14.89,14.89,0,0,0,442.35,610.61Zm0-20.18a5.29,5.29,0,1,1-5.29,5.29A5.29,5.29,0,0,1,442.35,590.43ZM390.3,601a5.29,5.29,0,1,1,5.29-5.28A5.28,5.28,0,0,1,390.3,601Z" transform="translate(-369.94 -417.68)"/><path class="cls-4" d="M386.28,497h23.46a14.88,14.88,0,1,0,0-8.36H386.25a14.72,14.72,0,0,0-2.56-5,120.85,120.85,0,0,0-9.38,23.88A14.92,14.92,0,0,0,386.28,497ZM424,487.52a5.29,5.29,0,1,1-5.29,5.29A5.29,5.29,0,0,1,424,487.52Z" transform="translate(-369.94 -417.68)"/><path class="cls-4" d="M385.07,566.21h19.21a14.89,14.89,0,1,0-.41-8.37H380.56l-7.2,11q1.31,5.38,3.06,10.57ZM418.34,556a5.29,5.29,0,1,1-5.29,5.28A5.28,5.28,0,0,1,418.34,556Z" transform="translate(-369.94 -417.68)"/><path class="cls-4" d="M422.17,439.75a14.88,14.88,0,1,0,25.34-13.63Q442,428.29,436.72,431a5.31,5.31,0,1,1-4.54,2.44Q427,436.36,422.17,439.75Z" transform="translate(-369.94 -417.68)"/><path class="cls-4" d="M463.77,542.09a14.89,14.89,0,1,0-14.89-14.89A14.89,14.89,0,0,0,463.77,542.09Zm0-20.18a5.29,5.29,0,1,1-5.29,5.29A5.29,5.29,0,0,1,463.77,521.91Z" transform="translate(-369.94 -417.68)"/><path class="cls-4" d="M401.28,465.57a5.28,5.28,0,0,1-8.92,3.83q-2.78,3.93-5.25,8.09A14.88,14.88,0,0,0,405.32,454q-3.4,3.43-6.52,7.13A5.28,5.28,0,0,1,401.28,465.57Z" transform="translate(-369.94 -417.68)"/><path class="cls-4" d="M423.49,470.66h27a14.88,14.88,0,1,0-.54-8.37H428.15l-11.44-18.5q-3.33,2.63-6.46,5.46Zm41-10.38a5.29,5.29,0,1,1-5.28,5.29A5.29,5.29,0,0,1,464.49,460.28Z" transform="translate(-369.94 -417.68)"/><path class="cls-1" d="M492.26,417.68a122.71,122.71,0,0,0-19,1.47c45.78,8.86,71.09,51.47,71.09,94.09l15.29,53.52v3.82H540.52l-6.7,46.95a7.65,7.65,0,0,1-7.57,6.57H487l-12.33,37a122.33,122.33,0,1,0,17.58-243.38Z" transform="translate(-369.94 -417.68)"/><path class="cls-5" d="M555.69,513.06q0-6-3.29-9.33c-2.09-2.09-5-3.17-8.82-3.27.21,1.84.39,3.68.51,5.52a5.77,5.77,0,0,1,3.67,1.72,7.4,7.4,0,0,1,1.67,5.2V524a8.49,8.49,0,0,1-.87,4l1.9,6.67a10.2,10.2,0,0,0,1.94-1.51q3.29-3.28,3.29-9.33Z" transform="translate(-369.94 -417.68)"/><path class="cls-5" d="M528.07,451.16v-4.24c0-.39-.21-.59-.63-.59H520.3q2.3,2.66,4.38,5.46h2.76A.56.56,0,0,0,528.07,451.16Z" transform="translate(-369.94 -417.68)"/><path class="cls-5" d="M531.73,649.81V639.06q0-6-3.29-9.33t-9.38-3.29q-6.09,0-9.38,3.29t-3.28,9.33v10.75q0,6,3.28,9.33a10,10,0,0,0,2.15,1.62,121.57,121.57,0,0,0,18.64-4.53A15,15,0,0,0,531.73,649.81Zm-6.25.16a7.41,7.41,0,0,1-1.67,5.17,7.07,7.07,0,0,1-9.49,0,7.41,7.41,0,0,1-1.67-5.17V638.9a7.4,7.4,0,0,1,1.67-5.2,7.15,7.15,0,0,1,9.49,0,7.4,7.4,0,0,1,1.67,5.2Z" transform="translate(-369.94 -417.68)"/><path class="cls-5" d="M557.43,619.79a.56.56,0,0,0,.64-.63v-4.24c0-.39-.21-.59-.64-.59h-7.26V585.45c0-.43-.19-.64-.58-.64h-1a1.74,1.74,0,0,0-.45.06l-.45.1L538,588.14l-.81,5.7,6.72-2.08v22.57h-8.06a.52.52,0,0,0-.58.59v4.24c0,.42.19.63.58.63Z" transform="translate(-369.94 -417.68)"/><path class="cls-5" d="M561.73,565.81V555.06q0-6-3.29-9.33a11,11,0,0,0-5.64-2.91l6.84,23.94v3.82h-5.43a4.46,4.46,0,0,1-.41.56,7.05,7.05,0,0,1-9.48,0,4.46,4.46,0,0,1-.41-.56h-3.39l-.67,4.71q3.27,3.13,9.21,3.14,6.09,0,9.38-3.29T561.73,565.81Z" transform="translate(-369.94 -417.68)"/><path class="cls-5" d="M537,426.11q-2.91-1.14-5.89-2.14a16.23,16.23,0,0,0-.74,5.09v10.75q0,6,3.29,9.33t9.38,3.29q6.09,0,9.38-3.29t3.29-9.33v-4.43q-3.08-1.86-6.26-3.54V440a7.41,7.41,0,0,1-1.67,5.17,7.05,7.05,0,0,1-9.48,0,7.36,7.36,0,0,1-1.67-5.17V428.9A9.87,9.87,0,0,1,537,426.11Z" transform="translate(-369.94 -417.68)"/><path class="cls-5" d="M485.85,422.6a7.09,7.09,0,0,1,3.22-.7,5.64,5.64,0,0,1,6.16,4.77q3.36,1.71,6.5,3.69v-1.3q0-6-3.28-9.33a10.23,10.23,0,0,0-2.87-2c-1.1,0-2.21,0-3.32,0-3.53,0-7,.16-10.47.45a10,10,0,0,0-2.11,1.6,9.58,9.58,0,0,0-.67.76C481.34,421.11,483.63,421.81,485.85,422.6Z" transform="translate(-369.94 -417.68)"/><path class="cls-5" d="M559.82,446.33a.52.52,0,0,0-.58.59v4.24c0,.42.19.63.58.63H577c-2.91-2.79-6-5.45-9.13-8v2.49Z" transform="translate(-369.94 -417.68)"/><path class="cls-5" d="M498.45,659.14q3.29-3.28,3.28-9.33V639.06q0-6-3.28-9.33t-9.38-3.29a18,18,0,0,0-2.92.22l-3.07,9.23a5.74,5.74,0,0,1,1.24-2.19,7.15,7.15,0,0,1,9.49,0,7.4,7.4,0,0,1,1.67,5.2V650a7.41,7.41,0,0,1-1.67,5.17,7.07,7.07,0,0,1-9.49,0,7.41,7.41,0,0,1-1.67-5.17V638.9a9.61,9.61,0,0,1,.42-3L477,654.26a10.71,10.71,0,0,0,2.73,4.88,11.18,11.18,0,0,0,6,3c1.82.1,3.65.16,5.5.17A11.66,11.66,0,0,0,498.45,659.14Z" transform="translate(-369.94 -417.68)"/><path class="cls-5" d="M590.56,608V596.9a7.4,7.4,0,0,1,1.67-5.2A6.25,6.25,0,0,1,602.56,593q1.46-3,2.74-6.14a13.5,13.5,0,0,0-8.33-2.38q-6.09,0-9.38,3.29t-3.28,9.33v10.75c0,3.9,1,6.92,3.07,9.1q2-2.52,4-5.16A8.6,8.6,0,0,1,590.56,608Z" transform="translate(-369.94 -417.68)"/><path class="cls-5" d="M541.42,488.33q.65,2.71,1.16,5.46h14.85a.56.56,0,0,0,.64-.63v-4.24c0-.39-.21-.59-.64-.59h-7.26V459.45c0-.43-.19-.64-.58-.64h-1a1.74,1.74,0,0,0-.45.06l-.45.1L536,462.79a.65.65,0,0,0-.42.69v4.18q0,.69.63.48l7.69-2.38v22.57Z" transform="translate(-369.94 -417.68)"/><path class="cls-5" d="M608.43,578.41c.6-1.82,1.16-3.65,1.68-5.51a9,9,0,0,1-1.05.07,6.1,6.1,0,0,1-4.75-1.83,7.41,7.41,0,0,1-1.67-5.17V554.9a7.4,7.4,0,0,1,1.67-5.2,7.15,7.15,0,0,1,9.49,0,4.54,4.54,0,0,1,.36.5q.29-3.42.38-6.9a16.12,16.12,0,0,0-5.48-.86q-6.1,0-9.39,3.29t-3.28,9.33v10.75q0,6,3.28,9.33C601.75,577.22,604.67,578.3,608.43,578.41Z" transform="translate(-369.94 -417.68)"/><path class="cls-5" d="M591.72,565.81V555.06q0-6-3.28-9.33t-9.38-3.29q-6.1,0-9.38,3.29t-3.29,9.33v10.75q0,6,3.29,9.33t9.38,3.29q6.09,0,9.38-3.29T591.72,565.81Zm-6.25.16a7.41,7.41,0,0,1-1.67,5.17,7.07,7.07,0,0,1-9.49,0,7.41,7.41,0,0,1-1.67-5.17V554.9a7.4,7.4,0,0,1,1.67-5.2,7.15,7.15,0,0,1,9.49,0,7.4,7.4,0,0,1,1.67,5.2Z" transform="translate(-369.94 -417.68)"/><path class="cls-5" d="M612,535.16v-4.24c0-.39-.21-.59-.63-.59h-7.26V501.45c0-.43-.2-.64-.59-.64h-.95a1.86,1.86,0,0,0-.45.06l-.45.1L590,504.79a.64.64,0,0,0-.43.69v4.18c0,.46.21.62.64.48l7.68-2.38v22.57h-8a.52.52,0,0,0-.59.59v4.24c0,.42.2.63.59.63h21.57A.56.56,0,0,0,612,535.16Z" transform="translate(-369.94 -417.68)"/><path class="cls-5" d="M506,420.79a.65.65,0,0,0-.42.69v4.18c0,.46.21.62.64.48l7.68-2.38v16a86.57,86.57,0,0,1,6.26,6.45V420.88q-4.47-1-9-1.75Z" transform="translate(-369.94 -417.68)"/><path class="cls-5" d="M590.35,481.81q0,6,3.28,9.33t9.38,3.29a19.46,19.46,0,0,0,2.72-.19c-.72-1.78-1.48-3.55-2.28-5.29l-.44,0a6.08,6.08,0,0,1-4.74-1.83A7.41,7.41,0,0,1,596.6,482v-5.84q-2.76-4.5-5.89-8.73a18.09,18.09,0,0,0-.36,3.66Z" transform="translate(-369.94 -417.68)"/><path class="cls-5" d="M582.4,491.14q3.29-3.28,3.28-9.33V471.06q0-6-3.28-9.33T573,458.44c-4.07,0-7.19,1.1-9.39,3.29s-3.28,5.3-3.28,9.33v10.75q0,6,3.28,9.33c2.2,2.19,5.32,3.29,9.39,3.29S580.21,493.33,582.4,491.14ZM566.6,482V470.9a7.4,7.4,0,0,1,1.67-5.2,7.15,7.15,0,0,1,9.49,0,7.4,7.4,0,0,1,1.67,5.2V482a7.41,7.41,0,0,1-1.67,5.17,7.07,7.07,0,0,1-9.49,0A7.41,7.41,0,0,1,566.6,482Z" transform="translate(-369.94 -417.68)"/><path class="cls-5" d="M560.35,523.81q0,6,3.29,9.33t9.38,3.29q6.09,0,9.38-3.29t3.28-9.33V513.06q0-6-3.28-9.33T573,500.44q-6.1,0-9.38,3.29t-3.29,9.33Zm6.25-10.91a7.4,7.4,0,0,1,1.67-5.2,7.15,7.15,0,0,1,9.49,0,7.4,7.4,0,0,1,1.67,5.2V524a7.41,7.41,0,0,1-1.67,5.17,7.07,7.07,0,0,1-9.49,0A7.41,7.41,0,0,1,566.6,524Z" transform="translate(-369.94 -417.68)"/><path class="cls-5" d="M568.27,633.7a6.17,6.17,0,0,1,4.71-1.8q2.61-2.29,5.1-4.73a16.43,16.43,0,0,0-5.06-.73c-4.07,0-7.19,1.1-9.39,3.29s-3.28,5.3-3.28,9.33v2.57q3.28-2.21,6.42-4.62A6.46,6.46,0,0,1,568.27,633.7Z" transform="translate(-369.94 -417.68)"/><path class="cls-5" d="M559.82,619.79h21.57a.56.56,0,0,0,.64-.63v-4.24c0-.39-.22-.59-.64-.59h-7.26V585.45c0-.43-.2-.64-.58-.64h-1a1.86,1.86,0,0,0-.45.06l-.45.1L560,588.79a.66.66,0,0,0-.43.69v4.18c0,.46.22.62.64.48l7.68-2.38v22.57h-8a.52.52,0,0,0-.58.59v4.24C559.24,619.58,559.43,619.79,559.82,619.79Z" transform="translate(-369.94 -417.68)"/><path class="cls-5" d="M549.59,626.81h-1a1.74,1.74,0,0,0-.45.06l-.45.1L536,630.79a.65.65,0,0,0-.42.69v4.18q0,.69.63.48l7.69-2.38V650.9c2.12-1,4.2-2,6.25-3.13V627.45C550.17,627,550,626.81,549.59,626.81Z" transform="translate(-369.94 -417.68)"/></svg>
